<mxfile host="app.diagrams.net" agent="Mozilla/5.0 (Windows NT 10.0; Win64; x64) AppleWebKit/537.36 (KHTML, like Gecko) Chrome/134.0.0.0 Safari/537.36" version="26.1.3">
  <diagram name="1 oldal" id="9EVWYHU9GVSomkGhGrrH">
    <mxGraphModel dx="1105" dy="586" grid="1" gridSize="10" guides="1" tooltips="1" connect="1" arrows="1" fold="1" page="1" pageScale="1" pageWidth="827" pageHeight="1169" math="0" shadow="0">
      <root>
        <mxCell id="0" />
        <mxCell id="1" parent="0" />
        <mxCell id="4k7bKZarboXX4blUcb_c-1" value="&lt;u&gt;Fkod&lt;/u&gt;" style="ellipse;whiteSpace=wrap;html=1;align=center;" vertex="1" parent="1">
          <mxGeometry x="20" y="230" width="100" height="40" as="geometry" />
        </mxCell>
        <mxCell id="4k7bKZarboXX4blUcb_c-2" value="Nev" style="ellipse;whiteSpace=wrap;html=1;align=center;" vertex="1" parent="1">
          <mxGeometry x="20" y="300" width="100" height="40" as="geometry" />
        </mxCell>
        <mxCell id="4k7bKZarboXX4blUcb_c-3" value="Eletkor" style="ellipse;whiteSpace=wrap;html=1;align=center;" vertex="1" parent="1">
          <mxGeometry x="20" y="370" width="100" height="40" as="geometry" />
        </mxCell>
        <mxCell id="4k7bKZarboXX4blUcb_c-4" value="Vegzettség" style="ellipse;shape=doubleEllipse;margin=3;whiteSpace=wrap;html=1;align=center;" vertex="1" parent="1">
          <mxGeometry x="20" y="440" width="100" height="40" as="geometry" />
        </mxCell>
        <mxCell id="4k7bKZarboXX4blUcb_c-5" value="Foszakacs" style="whiteSpace=wrap;html=1;align=center;" vertex="1" parent="1">
          <mxGeometry x="190" y="340" width="100" height="40" as="geometry" />
        </mxCell>
        <mxCell id="4k7bKZarboXX4blUcb_c-6" value="Etterem" style="whiteSpace=wrap;html=1;align=center;" vertex="1" parent="1">
          <mxGeometry x="430" y="340" width="100" height="40" as="geometry" />
        </mxCell>
        <mxCell id="4k7bKZarboXX4blUcb_c-7" value="Vendeg" style="whiteSpace=wrap;html=1;align=center;" vertex="1" parent="1">
          <mxGeometry x="827" y="340" width="100" height="40" as="geometry" />
        </mxCell>
        <mxCell id="4k7bKZarboXX4blUcb_c-8" value="R&lt;span style=&quot;background-color: transparent; color: light-dark(rgb(0, 0, 0), rgb(255, 255, 255));&quot;&gt;endelés&lt;/span&gt;" style="shape=rhombus;perimeter=rhombusPerimeter;whiteSpace=wrap;html=1;align=center;" vertex="1" parent="1">
          <mxGeometry x="630" y="330" width="120" height="60" as="geometry" />
        </mxCell>
        <mxCell id="4k7bKZarboXX4blUcb_c-9" value="E-Sz" style="shape=rhombus;perimeter=rhombusPerimeter;whiteSpace=wrap;html=1;align=center;" vertex="1" parent="1">
          <mxGeometry x="370" y="470" width="50" height="40" as="geometry" />
        </mxCell>
        <mxCell id="4k7bKZarboXX4blUcb_c-10" value="E_F" style="shape=rhombus;perimeter=rhombusPerimeter;whiteSpace=wrap;html=1;align=center;" vertex="1" parent="1">
          <mxGeometry x="340" y="345" width="40" height="30" as="geometry" />
        </mxCell>
        <mxCell id="4k7bKZarboXX4blUcb_c-11" value="E-Gy" style="shape=rhombus;perimeter=rhombusPerimeter;whiteSpace=wrap;html=1;align=center;" vertex="1" parent="1">
          <mxGeometry x="550" y="470" width="60" height="40" as="geometry" />
        </mxCell>
        <mxCell id="4k7bKZarboXX4blUcb_c-12" value="Szakacs" style="whiteSpace=wrap;html=1;align=center;" vertex="1" parent="1">
          <mxGeometry x="345" y="545" width="100" height="40" as="geometry" />
        </mxCell>
        <mxCell id="4k7bKZarboXX4blUcb_c-13" value="Gyakornok" style="whiteSpace=wrap;html=1;align=center;" vertex="1" parent="1">
          <mxGeometry x="530" y="545" width="100" height="40" as="geometry" />
        </mxCell>
        <mxCell id="4k7bKZarboXX4blUcb_c-19" value="" style="endArrow=none;html=1;rounded=0;exitX=0;exitY=0;exitDx=0;exitDy=0;entryX=1;entryY=0.5;entryDx=0;entryDy=0;" edge="1" parent="1" source="4k7bKZarboXX4blUcb_c-5" target="4k7bKZarboXX4blUcb_c-1">
          <mxGeometry width="50" height="50" relative="1" as="geometry">
            <mxPoint x="120" y="320" as="sourcePoint" />
            <mxPoint x="170" y="270" as="targetPoint" />
          </mxGeometry>
        </mxCell>
        <mxCell id="4k7bKZarboXX4blUcb_c-20" value="" style="endArrow=none;html=1;rounded=0;exitX=0;exitY=0.25;exitDx=0;exitDy=0;entryX=1;entryY=0.5;entryDx=0;entryDy=0;" edge="1" parent="1" source="4k7bKZarboXX4blUcb_c-5" target="4k7bKZarboXX4blUcb_c-2">
          <mxGeometry width="50" height="50" relative="1" as="geometry">
            <mxPoint x="190" y="370" as="sourcePoint" />
            <mxPoint x="120" y="280" as="targetPoint" />
          </mxGeometry>
        </mxCell>
        <mxCell id="4k7bKZarboXX4blUcb_c-21" value="" style="endArrow=none;html=1;rounded=0;exitX=0;exitY=0.5;exitDx=0;exitDy=0;entryX=1;entryY=0.5;entryDx=0;entryDy=0;" edge="1" parent="1" source="4k7bKZarboXX4blUcb_c-5" target="4k7bKZarboXX4blUcb_c-3">
          <mxGeometry width="50" height="50" relative="1" as="geometry">
            <mxPoint x="210" y="480" as="sourcePoint" />
            <mxPoint x="140" y="390" as="targetPoint" />
          </mxGeometry>
        </mxCell>
        <mxCell id="4k7bKZarboXX4blUcb_c-22" value="" style="endArrow=none;html=1;rounded=0;exitX=0;exitY=1;exitDx=0;exitDy=0;entryX=1;entryY=0.5;entryDx=0;entryDy=0;" edge="1" parent="1" source="4k7bKZarboXX4blUcb_c-5" target="4k7bKZarboXX4blUcb_c-4">
          <mxGeometry width="50" height="50" relative="1" as="geometry">
            <mxPoint x="220" y="550" as="sourcePoint" />
            <mxPoint x="150" y="460" as="targetPoint" />
          </mxGeometry>
        </mxCell>
        <mxCell id="4k7bKZarboXX4blUcb_c-23" value="" style="endArrow=classic;html=1;rounded=0;entryX=1;entryY=0.5;entryDx=0;entryDy=0;exitX=0;exitY=0.5;exitDx=0;exitDy=0;" edge="1" parent="1" source="4k7bKZarboXX4blUcb_c-10" target="4k7bKZarboXX4blUcb_c-5">
          <mxGeometry width="50" height="50" relative="1" as="geometry">
            <mxPoint x="380" y="310" as="sourcePoint" />
            <mxPoint x="430" y="260" as="targetPoint" />
          </mxGeometry>
        </mxCell>
        <mxCell id="4k7bKZarboXX4blUcb_c-24" value="" style="endArrow=classic;html=1;rounded=0;exitX=1;exitY=0.5;exitDx=0;exitDy=0;entryX=0;entryY=0.5;entryDx=0;entryDy=0;" edge="1" parent="1" source="4k7bKZarboXX4blUcb_c-10" target="4k7bKZarboXX4blUcb_c-6">
          <mxGeometry width="50" height="50" relative="1" as="geometry">
            <mxPoint x="380" y="310" as="sourcePoint" />
            <mxPoint x="430" y="260" as="targetPoint" />
          </mxGeometry>
        </mxCell>
        <mxCell id="4k7bKZarboXX4blUcb_c-25" value="" style="endArrow=classic;html=1;rounded=0;exitX=0;exitY=0.5;exitDx=0;exitDy=0;entryX=1;entryY=0.5;entryDx=0;entryDy=0;" edge="1" parent="1" source="4k7bKZarboXX4blUcb_c-8" target="4k7bKZarboXX4blUcb_c-6">
          <mxGeometry width="50" height="50" relative="1" as="geometry">
            <mxPoint x="450" y="310" as="sourcePoint" />
            <mxPoint x="500" y="260" as="targetPoint" />
          </mxGeometry>
        </mxCell>
        <mxCell id="4k7bKZarboXX4blUcb_c-26" value="" style="endArrow=classic;html=1;rounded=0;exitX=1;exitY=0.5;exitDx=0;exitDy=0;entryX=0;entryY=0.5;entryDx=0;entryDy=0;" edge="1" parent="1" source="4k7bKZarboXX4blUcb_c-8" target="4k7bKZarboXX4blUcb_c-7">
          <mxGeometry width="50" height="50" relative="1" as="geometry">
            <mxPoint x="827" y="375" as="sourcePoint" />
            <mxPoint x="727" y="375" as="targetPoint" />
          </mxGeometry>
        </mxCell>
        <mxCell id="4k7bKZarboXX4blUcb_c-27" value="&lt;u&gt;Vkod&lt;/u&gt;" style="ellipse;whiteSpace=wrap;html=1;align=center;" vertex="1" parent="1">
          <mxGeometry x="980" y="220" width="100" height="40" as="geometry" />
        </mxCell>
        <mxCell id="4k7bKZarboXX4blUcb_c-28" value="Nev" style="ellipse;whiteSpace=wrap;html=1;align=center;" vertex="1" parent="1">
          <mxGeometry x="980" y="280" width="100" height="40" as="geometry" />
        </mxCell>
        <mxCell id="4k7bKZarboXX4blUcb_c-29" value="Eletkor" style="ellipse;whiteSpace=wrap;html=1;align=center;" vertex="1" parent="1">
          <mxGeometry x="980" y="340" width="100" height="40" as="geometry" />
        </mxCell>
        <mxCell id="4k7bKZarboXX4blUcb_c-30" value="Cim" style="ellipse;whiteSpace=wrap;html=1;align=center;" vertex="1" parent="1">
          <mxGeometry x="980" y="400" width="100" height="40" as="geometry" />
        </mxCell>
        <mxCell id="4k7bKZarboXX4blUcb_c-31" value="" style="endArrow=none;html=1;rounded=0;entryX=0;entryY=0.5;entryDx=0;entryDy=0;exitX=1;exitY=0;exitDx=0;exitDy=0;" edge="1" parent="1" source="4k7bKZarboXX4blUcb_c-7" target="4k7bKZarboXX4blUcb_c-27">
          <mxGeometry width="50" height="50" relative="1" as="geometry">
            <mxPoint x="590" y="330" as="sourcePoint" />
            <mxPoint x="640" y="280" as="targetPoint" />
          </mxGeometry>
        </mxCell>
        <mxCell id="4k7bKZarboXX4blUcb_c-32" value="" style="endArrow=none;html=1;rounded=0;entryX=0;entryY=0.5;entryDx=0;entryDy=0;exitX=1;exitY=0.5;exitDx=0;exitDy=0;" edge="1" parent="1" source="4k7bKZarboXX4blUcb_c-7" target="4k7bKZarboXX4blUcb_c-28">
          <mxGeometry width="50" height="50" relative="1" as="geometry">
            <mxPoint x="937" y="350" as="sourcePoint" />
            <mxPoint x="990" y="250" as="targetPoint" />
          </mxGeometry>
        </mxCell>
        <mxCell id="4k7bKZarboXX4blUcb_c-33" value="" style="endArrow=none;html=1;rounded=0;entryX=0;entryY=0.5;entryDx=0;entryDy=0;exitX=1;exitY=0.5;exitDx=0;exitDy=0;" edge="1" parent="1" source="4k7bKZarboXX4blUcb_c-7" target="4k7bKZarboXX4blUcb_c-29">
          <mxGeometry width="50" height="50" relative="1" as="geometry">
            <mxPoint x="947" y="360" as="sourcePoint" />
            <mxPoint x="1000" y="260" as="targetPoint" />
          </mxGeometry>
        </mxCell>
        <mxCell id="4k7bKZarboXX4blUcb_c-34" value="" style="endArrow=none;html=1;rounded=0;entryX=0;entryY=0.5;entryDx=0;entryDy=0;exitX=1;exitY=1;exitDx=0;exitDy=0;" edge="1" parent="1" source="4k7bKZarboXX4blUcb_c-7" target="4k7bKZarboXX4blUcb_c-30">
          <mxGeometry width="50" height="50" relative="1" as="geometry">
            <mxPoint x="957" y="370" as="sourcePoint" />
            <mxPoint x="1010" y="270" as="targetPoint" />
          </mxGeometry>
        </mxCell>
        <mxCell id="4k7bKZarboXX4blUcb_c-35" value="Osszeg" style="ellipse;whiteSpace=wrap;html=1;align=center;" vertex="1" parent="1">
          <mxGeometry x="590" y="255" width="100" height="40" as="geometry" />
        </mxCell>
        <mxCell id="4k7bKZarboXX4blUcb_c-36" value="Etel" style="ellipse;whiteSpace=wrap;html=1;align=center;" vertex="1" parent="1">
          <mxGeometry x="720" y="255" width="100" height="40" as="geometry" />
        </mxCell>
        <mxCell id="4k7bKZarboXX4blUcb_c-37" value="" style="endArrow=none;html=1;rounded=0;entryX=0.5;entryY=1;entryDx=0;entryDy=0;exitX=0.5;exitY=0;exitDx=0;exitDy=0;" edge="1" parent="1" source="4k7bKZarboXX4blUcb_c-8" target="4k7bKZarboXX4blUcb_c-35">
          <mxGeometry width="50" height="50" relative="1" as="geometry">
            <mxPoint x="360" y="330" as="sourcePoint" />
            <mxPoint x="410" y="280" as="targetPoint" />
          </mxGeometry>
        </mxCell>
        <mxCell id="4k7bKZarboXX4blUcb_c-39" value="" style="endArrow=none;html=1;rounded=0;entryX=0.5;entryY=1;entryDx=0;entryDy=0;exitX=0.5;exitY=0;exitDx=0;exitDy=0;" edge="1" parent="1" source="4k7bKZarboXX4blUcb_c-8" target="4k7bKZarboXX4blUcb_c-36">
          <mxGeometry width="50" height="50" relative="1" as="geometry">
            <mxPoint x="360" y="330" as="sourcePoint" />
            <mxPoint x="410" y="280" as="targetPoint" />
          </mxGeometry>
        </mxCell>
        <mxCell id="4k7bKZarboXX4blUcb_c-41" value="Nev" style="ellipse;whiteSpace=wrap;html=1;align=center;" vertex="1" parent="1">
          <mxGeometry x="430" y="225" width="70" height="30" as="geometry" />
        </mxCell>
        <mxCell id="4k7bKZarboXX4blUcb_c-42" value="Cim" style="ellipse;whiteSpace=wrap;html=1;align=center;" vertex="1" parent="1">
          <mxGeometry x="320" y="230" width="70" height="30" as="geometry" />
        </mxCell>
        <mxCell id="4k7bKZarboXX4blUcb_c-43" value="&lt;u&gt;Ekod&lt;/u&gt;" style="ellipse;whiteSpace=wrap;html=1;align=center;" vertex="1" parent="1">
          <mxGeometry x="520" y="230" width="70" height="30" as="geometry" />
        </mxCell>
        <mxCell id="4k7bKZarboXX4blUcb_c-45" value="Csillag" style="ellipse;whiteSpace=wrap;html=1;align=center;" vertex="1" parent="1">
          <mxGeometry x="230" y="220" width="70" height="30" as="geometry" />
        </mxCell>
        <mxCell id="4k7bKZarboXX4blUcb_c-47" value="Varos" style="ellipse;whiteSpace=wrap;html=1;align=center;" vertex="1" parent="1">
          <mxGeometry x="250" y="150" width="70" height="30" as="geometry" />
        </mxCell>
        <mxCell id="4k7bKZarboXX4blUcb_c-48" value="Utca" style="ellipse;whiteSpace=wrap;html=1;align=center;" vertex="1" parent="1">
          <mxGeometry x="345" y="150" width="70" height="30" as="geometry" />
        </mxCell>
        <mxCell id="4k7bKZarboXX4blUcb_c-49" value="Hazszam" style="ellipse;whiteSpace=wrap;html=1;align=center;" vertex="1" parent="1">
          <mxGeometry x="440" y="150" width="70" height="30" as="geometry" />
        </mxCell>
        <mxCell id="4k7bKZarboXX4blUcb_c-50" value="" style="endArrow=classic;html=1;rounded=0;entryX=0.5;entryY=1;entryDx=0;entryDy=0;exitX=0.5;exitY=0;exitDx=0;exitDy=0;" edge="1" parent="1" source="4k7bKZarboXX4blUcb_c-9" target="4k7bKZarboXX4blUcb_c-6">
          <mxGeometry width="50" height="50" relative="1" as="geometry">
            <mxPoint x="360" y="510" as="sourcePoint" />
            <mxPoint x="410" y="460" as="targetPoint" />
          </mxGeometry>
        </mxCell>
        <mxCell id="4k7bKZarboXX4blUcb_c-51" value="" style="endArrow=classic;html=1;rounded=0;entryX=0.5;entryY=1;entryDx=0;entryDy=0;exitX=0.5;exitY=0;exitDx=0;exitDy=0;" edge="1" parent="1" source="4k7bKZarboXX4blUcb_c-11" target="4k7bKZarboXX4blUcb_c-6">
          <mxGeometry width="50" height="50" relative="1" as="geometry">
            <mxPoint x="360" y="510" as="sourcePoint" />
            <mxPoint x="410" y="460" as="targetPoint" />
          </mxGeometry>
        </mxCell>
        <mxCell id="4k7bKZarboXX4blUcb_c-52" value="&lt;u&gt;Szkod&lt;/u&gt;" style="ellipse;whiteSpace=wrap;html=1;align=center;" vertex="1" parent="1">
          <mxGeometry x="70" y="660" width="70" height="30" as="geometry" />
        </mxCell>
        <mxCell id="4k7bKZarboXX4blUcb_c-53" value="Nev" style="ellipse;whiteSpace=wrap;html=1;align=center;" vertex="1" parent="1">
          <mxGeometry x="190" y="660" width="70" height="30" as="geometry" />
        </mxCell>
        <mxCell id="4k7bKZarboXX4blUcb_c-54" value="Reszleg" style="ellipse;whiteSpace=wrap;html=1;align=center;" vertex="1" parent="1">
          <mxGeometry x="310" y="660" width="70" height="30" as="geometry" />
        </mxCell>
        <mxCell id="4k7bKZarboXX4blUcb_c-55" value="&lt;u&gt;Gykod&lt;/u&gt;" style="ellipse;whiteSpace=wrap;html=1;align=center;" vertex="1" parent="1">
          <mxGeometry x="540" y="660" width="70" height="30" as="geometry" />
        </mxCell>
        <mxCell id="4k7bKZarboXX4blUcb_c-56" value="Nev" style="ellipse;whiteSpace=wrap;html=1;align=center;" vertex="1" parent="1">
          <mxGeometry x="630" y="660" width="70" height="30" as="geometry" />
        </mxCell>
        <mxCell id="4k7bKZarboXX4blUcb_c-57" value="Gyakorlat" style="ellipse;whiteSpace=wrap;html=1;align=center;" vertex="1" parent="1">
          <mxGeometry x="735" y="660" width="70" height="30" as="geometry" />
        </mxCell>
        <mxCell id="4k7bKZarboXX4blUcb_c-58" value="Kezdete" style="ellipse;whiteSpace=wrap;html=1;align=center;" vertex="1" parent="1">
          <mxGeometry x="690" y="720" width="70" height="30" as="geometry" />
        </mxCell>
        <mxCell id="4k7bKZarboXX4blUcb_c-59" value="Idotartam" style="ellipse;whiteSpace=wrap;html=1;align=center;" vertex="1" parent="1">
          <mxGeometry x="780" y="720" width="70" height="30" as="geometry" />
        </mxCell>
        <mxCell id="4k7bKZarboXX4blUcb_c-60" value="Muszak" style="ellipse;shape=doubleEllipse;margin=3;whiteSpace=wrap;html=1;align=center;" vertex="1" parent="1">
          <mxGeometry x="827" y="655" width="100" height="40" as="geometry" />
        </mxCell>
        <mxCell id="4k7bKZarboXX4blUcb_c-62" value="Vegzettseg" style="ellipse;shape=doubleEllipse;margin=3;whiteSpace=wrap;html=1;align=center;" vertex="1" parent="1">
          <mxGeometry x="390" y="655" width="100" height="40" as="geometry" />
        </mxCell>
        <mxCell id="4k7bKZarboXX4blUcb_c-64" value="" style="endArrow=none;html=1;rounded=0;exitX=0.5;exitY=0;exitDx=0;exitDy=0;entryX=0;entryY=0.5;entryDx=0;entryDy=0;" edge="1" parent="1" source="4k7bKZarboXX4blUcb_c-52" target="4k7bKZarboXX4blUcb_c-12">
          <mxGeometry width="50" height="50" relative="1" as="geometry">
            <mxPoint x="210" y="620" as="sourcePoint" />
            <mxPoint x="260" y="570" as="targetPoint" />
          </mxGeometry>
        </mxCell>
        <mxCell id="4k7bKZarboXX4blUcb_c-66" value="" style="endArrow=none;html=1;rounded=0;exitX=0.5;exitY=0;exitDx=0;exitDy=0;entryX=0.5;entryY=1;entryDx=0;entryDy=0;" edge="1" parent="1" source="4k7bKZarboXX4blUcb_c-53" target="4k7bKZarboXX4blUcb_c-12">
          <mxGeometry width="50" height="50" relative="1" as="geometry">
            <mxPoint x="360" y="500" as="sourcePoint" />
            <mxPoint x="410" y="450" as="targetPoint" />
          </mxGeometry>
        </mxCell>
        <mxCell id="4k7bKZarboXX4blUcb_c-67" value="" style="endArrow=none;html=1;rounded=0;exitX=0.5;exitY=0;exitDx=0;exitDy=0;entryX=0.5;entryY=1;entryDx=0;entryDy=0;" edge="1" parent="1" source="4k7bKZarboXX4blUcb_c-54" target="4k7bKZarboXX4blUcb_c-12">
          <mxGeometry width="50" height="50" relative="1" as="geometry">
            <mxPoint x="235" y="670" as="sourcePoint" />
            <mxPoint x="405" y="595" as="targetPoint" />
          </mxGeometry>
        </mxCell>
        <mxCell id="4k7bKZarboXX4blUcb_c-68" value="" style="endArrow=none;html=1;rounded=0;exitX=0.5;exitY=0;exitDx=0;exitDy=0;entryX=0.5;entryY=1;entryDx=0;entryDy=0;" edge="1" parent="1" source="4k7bKZarboXX4blUcb_c-62" target="4k7bKZarboXX4blUcb_c-12">
          <mxGeometry width="50" height="50" relative="1" as="geometry">
            <mxPoint x="245" y="680" as="sourcePoint" />
            <mxPoint x="415" y="605" as="targetPoint" />
          </mxGeometry>
        </mxCell>
        <mxCell id="4k7bKZarboXX4blUcb_c-69" value="" style="endArrow=none;html=1;rounded=0;exitX=0.5;exitY=0;exitDx=0;exitDy=0;entryX=0.5;entryY=1;entryDx=0;entryDy=0;" edge="1" parent="1" source="4k7bKZarboXX4blUcb_c-55" target="4k7bKZarboXX4blUcb_c-13">
          <mxGeometry width="50" height="50" relative="1" as="geometry">
            <mxPoint x="255" y="690" as="sourcePoint" />
            <mxPoint x="425" y="615" as="targetPoint" />
          </mxGeometry>
        </mxCell>
        <mxCell id="4k7bKZarboXX4blUcb_c-70" value="" style="endArrow=none;html=1;rounded=0;exitX=0.5;exitY=0;exitDx=0;exitDy=0;entryX=0.5;entryY=1;entryDx=0;entryDy=0;" edge="1" parent="1" source="4k7bKZarboXX4blUcb_c-56" target="4k7bKZarboXX4blUcb_c-13">
          <mxGeometry width="50" height="50" relative="1" as="geometry">
            <mxPoint x="265" y="700" as="sourcePoint" />
            <mxPoint x="435" y="625" as="targetPoint" />
          </mxGeometry>
        </mxCell>
        <mxCell id="4k7bKZarboXX4blUcb_c-71" value="" style="endArrow=none;html=1;rounded=0;exitX=0.5;exitY=0;exitDx=0;exitDy=0;entryX=0.5;entryY=1;entryDx=0;entryDy=0;" edge="1" parent="1" source="4k7bKZarboXX4blUcb_c-57" target="4k7bKZarboXX4blUcb_c-13">
          <mxGeometry width="50" height="50" relative="1" as="geometry">
            <mxPoint x="275" y="710" as="sourcePoint" />
            <mxPoint x="445" y="635" as="targetPoint" />
          </mxGeometry>
        </mxCell>
        <mxCell id="4k7bKZarboXX4blUcb_c-72" value="" style="endArrow=none;html=1;rounded=0;exitX=0.5;exitY=0;exitDx=0;exitDy=0;entryX=1;entryY=0.5;entryDx=0;entryDy=0;" edge="1" parent="1" source="4k7bKZarboXX4blUcb_c-60" target="4k7bKZarboXX4blUcb_c-13">
          <mxGeometry width="50" height="50" relative="1" as="geometry">
            <mxPoint x="285" y="720" as="sourcePoint" />
            <mxPoint x="455" y="645" as="targetPoint" />
          </mxGeometry>
        </mxCell>
        <mxCell id="4k7bKZarboXX4blUcb_c-73" value="" style="endArrow=none;html=1;rounded=0;exitX=0.5;exitY=0;exitDx=0;exitDy=0;entryX=0.5;entryY=1;entryDx=0;entryDy=0;" edge="1" parent="1" source="4k7bKZarboXX4blUcb_c-58" target="4k7bKZarboXX4blUcb_c-57">
          <mxGeometry width="50" height="50" relative="1" as="geometry">
            <mxPoint x="295" y="730" as="sourcePoint" />
            <mxPoint x="465" y="655" as="targetPoint" />
          </mxGeometry>
        </mxCell>
        <mxCell id="4k7bKZarboXX4blUcb_c-74" value="" style="endArrow=none;html=1;rounded=0;exitX=0.5;exitY=0;exitDx=0;exitDy=0;entryX=0.5;entryY=1;entryDx=0;entryDy=0;" edge="1" parent="1" source="4k7bKZarboXX4blUcb_c-59" target="4k7bKZarboXX4blUcb_c-57">
          <mxGeometry width="50" height="50" relative="1" as="geometry">
            <mxPoint x="305" y="740" as="sourcePoint" />
            <mxPoint x="475" y="665" as="targetPoint" />
          </mxGeometry>
        </mxCell>
        <mxCell id="4k7bKZarboXX4blUcb_c-75" value="" style="endArrow=none;html=1;rounded=0;exitX=0.5;exitY=0;exitDx=0;exitDy=0;entryX=0.5;entryY=1;entryDx=0;entryDy=0;" edge="1" parent="1" source="4k7bKZarboXX4blUcb_c-6" target="4k7bKZarboXX4blUcb_c-42">
          <mxGeometry width="50" height="50" relative="1" as="geometry">
            <mxPoint x="360" y="320" as="sourcePoint" />
            <mxPoint x="410" y="270" as="targetPoint" />
          </mxGeometry>
        </mxCell>
        <mxCell id="4k7bKZarboXX4blUcb_c-77" value="" style="endArrow=none;html=1;rounded=0;exitX=0.5;exitY=0;exitDx=0;exitDy=0;entryX=0.5;entryY=1;entryDx=0;entryDy=0;" edge="1" parent="1" source="4k7bKZarboXX4blUcb_c-6" target="4k7bKZarboXX4blUcb_c-41">
          <mxGeometry width="50" height="50" relative="1" as="geometry">
            <mxPoint x="490" y="350" as="sourcePoint" />
            <mxPoint x="365" y="270" as="targetPoint" />
          </mxGeometry>
        </mxCell>
        <mxCell id="4k7bKZarboXX4blUcb_c-78" value="" style="endArrow=none;html=1;rounded=0;exitX=0.5;exitY=0;exitDx=0;exitDy=0;entryX=0.5;entryY=1;entryDx=0;entryDy=0;" edge="1" parent="1" source="4k7bKZarboXX4blUcb_c-6" target="4k7bKZarboXX4blUcb_c-43">
          <mxGeometry width="50" height="50" relative="1" as="geometry">
            <mxPoint x="500" y="360" as="sourcePoint" />
            <mxPoint x="375" y="280" as="targetPoint" />
          </mxGeometry>
        </mxCell>
        <mxCell id="4k7bKZarboXX4blUcb_c-79" value="" style="endArrow=none;html=1;rounded=0;exitX=0.5;exitY=0;exitDx=0;exitDy=0;entryX=0.5;entryY=1;entryDx=0;entryDy=0;" edge="1" parent="1" source="4k7bKZarboXX4blUcb_c-6" target="4k7bKZarboXX4blUcb_c-45">
          <mxGeometry width="50" height="50" relative="1" as="geometry">
            <mxPoint x="510" y="370" as="sourcePoint" />
            <mxPoint x="385" y="290" as="targetPoint" />
          </mxGeometry>
        </mxCell>
        <mxCell id="4k7bKZarboXX4blUcb_c-80" value="" style="endArrow=none;html=1;rounded=0;exitX=0.5;exitY=0;exitDx=0;exitDy=0;entryX=0.5;entryY=1;entryDx=0;entryDy=0;" edge="1" parent="1" source="4k7bKZarboXX4blUcb_c-42" target="4k7bKZarboXX4blUcb_c-47">
          <mxGeometry width="50" height="50" relative="1" as="geometry">
            <mxPoint x="520" y="380" as="sourcePoint" />
            <mxPoint x="395" y="300" as="targetPoint" />
          </mxGeometry>
        </mxCell>
        <mxCell id="4k7bKZarboXX4blUcb_c-81" value="" style="endArrow=none;html=1;rounded=0;exitX=0.5;exitY=0;exitDx=0;exitDy=0;entryX=0.5;entryY=1;entryDx=0;entryDy=0;" edge="1" parent="1" source="4k7bKZarboXX4blUcb_c-42" target="4k7bKZarboXX4blUcb_c-48">
          <mxGeometry width="50" height="50" relative="1" as="geometry">
            <mxPoint x="530" y="390" as="sourcePoint" />
            <mxPoint x="405" y="310" as="targetPoint" />
          </mxGeometry>
        </mxCell>
        <mxCell id="4k7bKZarboXX4blUcb_c-82" value="" style="endArrow=none;html=1;rounded=0;exitX=0.5;exitY=0;exitDx=0;exitDy=0;entryX=0.5;entryY=1;entryDx=0;entryDy=0;" edge="1" parent="1" source="4k7bKZarboXX4blUcb_c-42" target="4k7bKZarboXX4blUcb_c-49">
          <mxGeometry width="50" height="50" relative="1" as="geometry">
            <mxPoint x="540" y="400" as="sourcePoint" />
            <mxPoint x="415" y="320" as="targetPoint" />
          </mxGeometry>
        </mxCell>
        <mxCell id="4k7bKZarboXX4blUcb_c-84" value="" style="endArrow=classic;html=1;rounded=0;exitX=0.5;exitY=1;exitDx=0;exitDy=0;entryX=0.5;entryY=0;entryDx=0;entryDy=0;" edge="1" parent="1" source="4k7bKZarboXX4blUcb_c-9" target="4k7bKZarboXX4blUcb_c-12">
          <mxGeometry width="50" height="50" relative="1" as="geometry">
            <mxPoint x="550" y="630" as="sourcePoint" />
            <mxPoint x="600" y="580" as="targetPoint" />
          </mxGeometry>
        </mxCell>
        <mxCell id="4k7bKZarboXX4blUcb_c-85" value="" style="endArrow=classic;html=1;rounded=0;exitX=0.5;exitY=1;exitDx=0;exitDy=0;entryX=0.5;entryY=0;entryDx=0;entryDy=0;" edge="1" parent="1" source="4k7bKZarboXX4blUcb_c-11" target="4k7bKZarboXX4blUcb_c-13">
          <mxGeometry width="50" height="50" relative="1" as="geometry">
            <mxPoint x="405" y="520" as="sourcePoint" />
            <mxPoint x="405" y="555" as="targetPoint" />
          </mxGeometry>
        </mxCell>
        <mxCell id="4k7bKZarboXX4blUcb_c-88" value="Varos" style="ellipse;whiteSpace=wrap;html=1;align=center;" vertex="1" parent="1">
          <mxGeometry x="1120" y="305" width="100" height="40" as="geometry" />
        </mxCell>
        <mxCell id="4k7bKZarboXX4blUcb_c-89" value="Utca" style="ellipse;whiteSpace=wrap;html=1;align=center;" vertex="1" parent="1">
          <mxGeometry x="1120" y="360" width="100" height="40" as="geometry" />
        </mxCell>
        <mxCell id="4k7bKZarboXX4blUcb_c-90" value="Hazszam" style="ellipse;whiteSpace=wrap;html=1;align=center;" vertex="1" parent="1">
          <mxGeometry x="1120" y="420" width="100" height="40" as="geometry" />
        </mxCell>
        <mxCell id="4k7bKZarboXX4blUcb_c-91" value="" style="endArrow=none;html=1;rounded=0;entryX=0;entryY=0.5;entryDx=0;entryDy=0;exitX=1;exitY=0.5;exitDx=0;exitDy=0;" edge="1" parent="1" source="4k7bKZarboXX4blUcb_c-30" target="4k7bKZarboXX4blUcb_c-88">
          <mxGeometry width="50" height="50" relative="1" as="geometry">
            <mxPoint x="740" y="430" as="sourcePoint" />
            <mxPoint x="790" y="380" as="targetPoint" />
          </mxGeometry>
        </mxCell>
        <mxCell id="4k7bKZarboXX4blUcb_c-92" value="" style="endArrow=none;html=1;rounded=0;entryX=0;entryY=0.5;entryDx=0;entryDy=0;exitX=1;exitY=0.5;exitDx=0;exitDy=0;" edge="1" parent="1" source="4k7bKZarboXX4blUcb_c-30" target="4k7bKZarboXX4blUcb_c-89">
          <mxGeometry width="50" height="50" relative="1" as="geometry">
            <mxPoint x="1090" y="430" as="sourcePoint" />
            <mxPoint x="1130" y="335" as="targetPoint" />
          </mxGeometry>
        </mxCell>
        <mxCell id="4k7bKZarboXX4blUcb_c-93" value="" style="endArrow=none;html=1;rounded=0;entryX=0;entryY=0.5;entryDx=0;entryDy=0;exitX=1;exitY=0.5;exitDx=0;exitDy=0;" edge="1" parent="1" source="4k7bKZarboXX4blUcb_c-30" target="4k7bKZarboXX4blUcb_c-90">
          <mxGeometry width="50" height="50" relative="1" as="geometry">
            <mxPoint x="1100" y="440" as="sourcePoint" />
            <mxPoint x="1140" y="345" as="targetPoint" />
          </mxGeometry>
        </mxCell>
      </root>
    </mxGraphModel>
  </diagram>
</mxfile>
